<?xml version="1.0" encoding="UTF-8"?>
<!-- Big Merge · nivel 5: planeta rocoso -->
<svg xmlns="http://www.w3.org/2000/svg" viewBox="0 0 128 128" width="128" height="128" role="img" aria-label="Rocky planet">
  <defs>
    <radialGradient id="rp-glow" cx="64" cy="64" r="64" gradientUnits="userSpaceOnUse">
      <stop offset="0.82" stop-color="#5ad1ff" stop-opacity="0.5"/>
      <stop offset="0.92" stop-color="#22d3ee" stop-opacity="0.2"/>
      <stop offset="1" stop-color="#22d3ee" stop-opacity="0"/>
    </radialGradient>
    <radialGradient id="rp-ocean" cx="44" cy="40" r="80" gradientUnits="userSpaceOnUse">
      <stop offset="0" stop-color="#3aa0ff"/>
      <stop offset="0.7" stop-color="#1f5fd6"/>
      <stop offset="1" stop-color="#123a8f"/>
    </radialGradient>
    <clipPath id="rp-clip"><circle cx="64" cy="64" r="56"/></clipPath>
  </defs>
  <circle cx="64" cy="64" r="64" fill="url(#rp-glow)"/>
  <circle cx="64" cy="64" r="56" fill="url(#rp-ocean)"/>
  <g clip-path="url(#rp-clip)">
    <!-- Continentes -->
    <path d="M24 50 C40 38 58 44 64 58 C70 72 58 82 42 78 C26 74 14 62 24 50 Z" fill="#3fb567"/>
    <path d="M78 30 C96 28 110 40 106 54 C102 66 86 66 78 56 C70 46 68 32 78 30 Z" fill="#3fb567"/>
    <path d="M66 86 C80 80 100 86 102 100 C94 114 70 114 62 102 C56 94 56 90 66 86 Z" fill="#48c476"/>
    <path d="M30 92 C40 88 52 92 52 100 C48 110 34 110 28 102 C24 98 24 94 30 92 Z" fill="#3fb567"/>
    <!-- Nubes -->
    <ellipse cx="50" cy="34" rx="18" ry="6" fill="#ffffff" opacity="0.32"/>
    <ellipse cx="88" cy="80" rx="14" ry="5" fill="#ffffff" opacity="0.3"/>
  </g>
  <circle cx="64" cy="64" r="56" fill="none" stroke="#bfeaff" stroke-opacity="0.5" stroke-width="2"/>
</svg>
